<!-- Generated by IcoMoon.io -->
<svg version="1.1" xmlns="http://www.w3.org/2000/svg" width="30" height="30" viewBox="0 0 30 30">
<path fill="#3754fa" d="M23.875 17.131c0 0.121-0.015 0.239-0.039 0.352-0.007 0.038-0.020 0.075-0.030 0.111 0 0.003 0 0.005-0.003 0.008-1.116 3.719-4.567 6.429-8.65 6.429-2.495 0-4.75-1.011-6.384-2.646l2.234-2.234c1.064 1.060 2.529 1.718 4.15 1.718 2.665 0 4.914-1.778 5.631-4.21 0.008-0.027 0.015-0.052 0.020-0.080l0.008 0.003c0.209-0.565 0.729-0.976 1.353-1.029 0.042-0.003 0.084-0.005 0.129-0.005 0.406 0 0.779 0.153 1.056 0.406 0.323 0.288 0.525 0.71 0.525 1.175z"></path>
<path fill="#f50" d="M8.77 21.385l2.234-2.234s10.537-10.538 10.537-10.538c-1.634-1.634-3.893-2.646-6.387-2.646-4.989 0-9.031 4.044-9.031 9.031 0 2.495 1.011 4.752 2.647 6.384 0 0 0 0 0 0zM14.152 8.892c0.756 0 1.478 0.16 2.127 0.449 0.189 0.080 0.32 0.265 0.32 0.483 0 0.147-0.060 0.275-0.153 0.372l-6.26 6.26c-0.096 0.095-0.228 0.153-0.375 0.153-0.198 0-0.372-0.111-0.46-0.275-0.010-0.018-0.018-0.035-0.025-0.053-0.285-0.646-0.444-1.366-0.444-2.12 0-2.91 2.36-5.271 5.271-5.271z"></path>
</svg>
